PathFileType	4	(X/Y/Z)	RBDS03\RBDS03runT35.trc
DataRate	CameraRate	NumFrames	NumMarkers	Units	OrigDataRate	OrigDataStartFrame	OrigNumFrames
150.000000	150.000000	4	33	mm	150.000000	0	4500
Frame#	Time	L.ASIS			L.Heel.Bottom			L.Heel.Lateral			L.Heel.Top			L.Iliac.Crest			L.MT1			L.MT5			L.PSIS			L.Shank.Bottom.Lateral			L.Shank.Bottom.Medial			L.Shank.Top.Lateral			L.Shank.Top.Medial			L.Thigh.Bottom.Lateral			L.Thigh.Bottom.Medial			L.Thigh.Top.Lateral			L.Thigh.Top.Medial			R.ASIS			R.ASY			R.Heel.Bottom			R.Heel.Lateral			R.Heel.Top			R.Iliac.Crest			R.MT1			R.MT5			R.PSIS			R.Shank.Bottom.Lateral			R.Shank.Bottom.Medial			R.Shank.Top.Lateral			R.Shank.Top.Medial			R.Thigh.Bottom.Lateral			R.Thigh.Bottom.Medial			R.Thigh.Top.Lateral			R.Thigh.Top.Medial			
		X1	Y1	Z1	X2	Y2	Z2	X3	Y3	Z3	X4	Y4	Z4	X5	Y5	Z5	X6	Y6	Z6	X7	Y7	Z7	X8	Y8	Z8	X9	Y9	Z9	X10	Y10	Z10	X11	Y11	Z11	X12	Y12	Z12	X13	Y13	Z13	X14	Y14	Z14	X15	Y15	Z15	X16	Y16	Z16	X17	Y17	Z17	X18	Y18	Z18	X19	Y19	Z19	X20	Y20	Z20	X21	Y21	Z21	X22	Y22	Z22	X23	Y23	Z23	X24	Y24	Z24	X25	Y25	Z25	X26	Y26	Z26	X27	Y27	Z27	X28	Y28	Z28	X29	Y29	Z29	X30	Y30	Z30	X31	Y31	Z31	X32	Y32	Z32	X33	Y33	Z33	

1	0	2402.155916566973	1058.339469294184	931.7851617981069	1772.889850367065	237.8927252552756	983.5233274591861	1800.625313439223	211.2213090839535	939.4649127204731	1817.869497253916	260.0036596610315	976.3123995038264	2350.716508993683	1133.882953961603	883.3032717604782	1932.574627013224	84.87141792057612	1039.620553807961	1890.172987923523	82.44733856595531	936.0712894640945	2231.482983445149	1109.12257397063	990.3215800361575	1904.682776667549	289.2328621892612	921.314496687594	1869.110088914416	308.2000038852171	958.0920810885658	1933.259391700201	363.2172686882642	910.0018121946056	1898.138317618299	382.7512063319513	945.6449674504591	2124.994759812534	674.979536591855	906.620585799464	2076.081919735664	706.3463257431862	951.4062879060345	2168.358426441309	773.5794786422829	885.0551550428243	2120.432492428582	804.6870324450225	926.1855717489409	2393.005883209459	1080.574181378129	1134.587203623621	2424.246325656079	188.5044096740507	1071.063257907127	2234.431255157075	216.1172676476869	1039.402933300242	2271.01404971416	216.4656546347096	1090.068026749241	2266.00731349347	253.4173403342213	1043.408441780692	2335.693547031722	1167.227075509094	1174.990035189014	2428.225659174864	124.1197472652225	1019.652004582372	2394.892573342397	126.1597820151834	1129.968401233416	2231.532911895585	1115.83431496105	1074.665062256709	2345.560362553831	297.0879732141843	1110.869111935677	2321.703706631653	319.6386267929384	1071.151191443498	2374.99170989604	373.7184602409144	1134.212961398691	2348.84177736935	392.9505467736764	1092.0678536849	2511.703752098304	714.0767193817923	1188.321843261327	2455.826383821074	675.8319572405502	1160.551688346063	2441.668135524858	798.05566240653	1207.416123496146	2391.004872005825	762.749949700805	1177.835816643449	
2	0.006666666666666667	2404.675114054858	1061.93517882337	932.5382652839756	1761.668338812195	253.4210926735919	984.9579089323784	1787.351418070961	226.4012901290758	939.9990960811485	1807.239452046403	273.9196404692002	976.7854106278617	2354.538890234129	1137.886355252554	883.9378818155598	1916.397419813841	93.7495184391138	1035.774649401479	1872.313321930189	94.18314118240686	933.6167227427444	2234.095937624213	1113.816068381713	989.7440043238959	1893.985155222976	300.1782537773614	919.9898080390736	1858.770081093097	319.9907909627821	956.6940041382567	1924.281524898754	373.5199577989974	908.646192191281	1889.473513449905	393.9560388704166	944.1056042845599	2122.916843757837	681.7942559262816	905.872461573032	2074.323878737178	714.1121544827708	950.1602886654661	2168.244587346139	779.5112506631579	884.4055102043175	2120.616122481713	811.5618387870303	925.0372700870985	2394.134470869174	1083.300644097122	1135.271408460674	2451.992215252713	182.5953543753192	1071.236766363213	2261.845470652328	196.367268043861	1038.364359491548	2297.681498154824	199.1514446413906	1089.256201241752	2290.425530809752	235.7047879370191	1042.655772296466	2337.230393921283	1170.936755938314	1175.806563012424	2460.754753068495	119.3680741893934	1019.349691631992	2427.086520875707	118.4006861917417	1129.52087577866	2233.432401989516	1119.905919304741	1074.248056958176	2365.532645139773	285.3642866130461	1110.268089961904	2340.787957935496	306.1739044524332	1070.183666981684	2389.219003815298	363.3442693392418	1133.688173325444	2362.534865818178	380.6891075373028	1091.142767847162	2508.04518457142	712.9987284766878	1186.881912192915	2451.614329171598	675.2833062114416	1159.404865407449	2439.037778600016	797.903825868191	1205.761935553732	2387.869325889675	763.1289804129212	1176.436062316475	
3	0.01333333333333333	2407.132907170078	1065.422512900773	933.2601742164792	1750.456211077125	268.9918567224054	986.3099376383011	1774.146479122376	241.6321738767592	940.4911984985928	1796.613162587807	287.8834727836747	977.2370697320623	2358.184732940824	1141.784348062312	884.5586548229062	1900.184392391744	102.8050680492642	1032.073053544601	1854.521009205147	106.0654824355783	931.2297553678312	2236.629282638146	1118.347795663749	989.1879807090945	1883.3530789325	311.1435983318427	918.7211495063847	1848.540612105683	331.8332610328965	955.3578973609992	1915.443887785088	383.7768963342293	907.3463672702583	1880.983995457161	405.1462499462756	942.6259928227524	2121.223303700624	688.1781637748329	905.0936380278361	2072.886384384281	721.3933816221344	948.870560353152	2168.393631631399	785.0668698514711	883.7194656914356	2120.968825294232	818.0110444759093	923.7814088399041	2395.229972879147	1085.893674091883	1135.938459337058	2479.288239672806	177.0860176486228	1071.498521594664	2289.106116987681	177.1032775381846	1037.362839477576	2324.138524910028	182.2849349694499	1088.495788140386	2314.662013419061	218.3966082550144	1041.94653949643	2338.663610612517	1174.387803271453	1176.597408526375	2492.819863012423	115.1269066161028	1019.175968240904	2458.826172681454	111.1494374720853	1129.193963224677	2235.267591124555	1123.787694554991	1073.847510082249	2385.220743812694	273.9387373856497	1109.70630512277	2359.621610628248	293.0043613208343	1069.254664083392	2403.184120384772	353.1676965999594	1133.171751484786	2376.000806626988	368.6353811210365	1090.227601384232	2504.181194407013	711.6872458971604	1185.513687663046	2447.241537962835	674.5877231174553	1158.182454826027	2436.239535593614	797.5187916054388	1204.234491957585	2384.59899601442	763.3535049972405	1175.040095967121	
4	0.02	2409.472780751027	1068.718315121685	933.9196982148087	1739.256190478619	284.6783216069595	987.4785439236502	1761.066105063536	256.9798404842098	940.8836658121764	1785.987954115666	301.9576111041852	977.6329855690428	2361.491047235269	1145.49095922102	885.150776324371	1883.855384092852	112.2201998094788	1028.662355684957	1836.824088367767	118.2325794551281	928.979693289544	2239.006713650143	1122.574713850333	988.6743128607144	1872.828453072621	322.1588997689881	917.5578720899039	1838.508571408661	343.7848185664136	954.1417443278669	1906.860099438643	393.9587735687463	906.154933525733	1872.819678052645	416.3166275153155	941.2649859634105	2120.254407825741	693.753132354772	904.2600669036734	2072.057479641265	727.7593081662502	947.5085831989854	2169.03555204081	789.9202503992379	882.9720525151665	2121.643904983965	823.6592346683722	922.3424440520365	2396.258374386337	1088.238086895908	1136.565689699682	2505.738254597059	172.3797713497885	1071.926831868605	2316.114839056722	158.7615937848604	1036.434544095015	2350.234106641886	166.2741634008419	1087.834399600314	2338.578583939514	201.8546339322124	1041.325185623631	2339.922879308756	1177.354910734712	1177.337733946559	2524.01803801378	111.9133962110298	1019.244796540686	2489.731391436044	104.9085848615799	1129.091495398496	2236.976082252108	1127.314793093394	1073.478680835648	2404.389493786182	263.1082226496971	1109.22234435473	2377.996794515353	280.4170249570014	1068.405014226197	2416.668715714253	343.390985864913	1132.674429572172	2389.048235306992	356.9935073263734	1089.336968923814	2499.914628917466	709.947379575525	1184.275910113101	2442.554315877287	673.628211054388	1156.810359079056	2433.113619872748	796.7094527472423	1202.9350619995	2381.067504823267	763.3020089319683	1173.640092405574	
